<svg xmlns="http://www.w3.org/2000/svg" width="512" height="512" viewBox="0 0 512 512">
  <rect width="512" height="512" rx="96" fill="#0d0d0f"/>
  <g transform="translate(256 256) scale(11) translate(-12 -12)" fill="none" stroke="#e63030" stroke-width="2" stroke-linecap="round" stroke-linejoin="round">
    <path stroke="none" d="M0 0h24v24H0z" fill="none"/>
    <path d="M7 17m-2 0a2 2 0 1 0 4 0a2 2 0 1 0 -4 0"/>
    <path d="M17 17m-2 0a2 2 0 1 0 4 0a2 2 0 1 0 -4 0"/>
    <path d="M5 17h-2v-6l2 -5h9l4 4h1a2 2 0 0 1 2 2v5h-2m-4 0h-6m-6 -6h15m-6 0v-5"/>
  </g>
</svg>
